<svg xmlns="http://www.w3.org/2000/svg" viewBox="0 0 1600 760"><defs><linearGradient id="s" x2="0" y2="1"><stop stop-color="#171d28"/><stop offset=".52" stop-color="#4b3d2c"/><stop offset="1" stop-color="#151711"/></linearGradient><linearGradient id="g" x2="0" y2="1"><stop stop-color="#80704a"/><stop offset="1" stop-color="#332e23"/></linearGradient></defs><rect width="1600" height="760" fill="url(#s)"/><circle cx="1270" cy="150" r="78" fill="#d8b861" opacity=".48"/><path d="M0 430 190 315 350 415 520 255 690 410 860 285 1040 425 1230 245 1430 390 1600 305V760H0Z" fill="#24281f"/><path d="M0 515 220 405 430 520 660 390 850 520 1090 380 1310 510 1600 410V760H0Z" fill="#171b16"/><g fill="url(#g)" stroke="#242118" stroke-width="8"><path d="M520 280h360v330H520z"/><path d="M470 230h120v380H470zM810 220h125v390H810z"/><path d="m460 230 70-80 70 80zM800 220l72-85 73 85z"/><path d="M610 355h180v255H610z"/></g><g fill="#14140f"><rect x="500" y="300" width="34" height="62"/><rect x="852" y="292" width="34" height="62"/><rect x="655" y="400" width="85" height="210" rx="42"/></g><g fill="#927a3d" opacity=".65"><rect x="100" y="560" width="90" height="200"/><rect x="120" y="515" width="50" height="60"/><rect x="1390" y="545" width="105" height="215"/><rect x="1415" y="495" width="55" height="65"/></g><g fill="#10140f"><path d="M0 650h1600v110H0z"/><path d="m40 650 50-150 40 150m80 0 65-205 55 205m910 0 60-190 50 190m95 0 55-170 50 170"/></g><g fill="#d7aa48" opacity=".8"><rect x="548" y="320" width="10" height="38"/><rect x="875" y="310" width="10" height="38"/><rect x="684" y="445" width="12" height="45"/></g></svg>